# xmcd
#
# Track frame offsets: 
#        150
#        15972
#        33237
#        46049
#        55291
#        66799
#        79696
#        95693
#        112890
#        131235
#
# Disc length: 1944 seconds
#
# Revision: 2
# Processed by: cddbd v1.5.2PL0 Copyright (c) Steve Scherf et al.
# Submitted via: ExactAudioCopy v0.99pb5
#
DISCID=7607960a
DTITLE=Various Artist - Christmas Album - Let It Snow
DYEAR=2005
DGENRE=xmas
TTITLE0=The Four Tops - Merry Christmas To You
TTITLE1=Melanie - It's Christmas
TTITLE2=Roy Orbison - Pretty Paper
TTITLE3=Nat King Cole - Away In A Manger
TTITLE4=Louis Armstrong - Santa Claus Blues
TTITLE5=Ray Charles - Snow Is Falling
TTITLE6=Greg Lake - I Believe In Father Christmas
TTITLE7=Baccara - Daughter Zion
TTITLE8=Goombay Dance Band - Christmas At Sea
TTITLE9=David Garrick and Middle Of The Road - Happy X-Mas
EXTD=LC8867
EXTT0=
EXTT1=
EXTT2=
EXTT3=
EXTT4=
EXTT5=
EXTT6=
EXTT7=
EXTT8=
EXTT9=
PLAYORDER=
